<?xml version="1.0" encoding="utf-8"?>
<!-- Generator: Adobe Illustrator 25.4.1, SVG Export Plug-In . SVG Version: 6.00 Build 0)  -->
<svg version="1.1" id="Слой_1" xmlns="http://www.w3.org/2000/svg" xmlns:xlink="http://www.w3.org/1999/xlink" x="0px" y="0px"
	 viewBox="0 0 340.2 364.8" style="enable-background:new 0 0 340.2 364.8;" xml:space="preserve">
<style type="text/css">
	.st0{display:none;fill:#1F1F1F;}
	.st1{fill-rule:evenodd;clip-rule:evenodd;fill:#F9690E;}
	.st2{fill-rule:evenodd;clip-rule:evenodd;fill:#FFFFFF;}
</style>
<rect x="-789.9" y="-357.5" class="st0" width="1920" height="1080"/>
<g>
	<path class="st1" d="M0,182.5C0,81.7,81.7,0,182.5,0c67.3,0,126.1,36.5,157.7,90.7l-90.6,37c-6.5-7.9-14.5-14.9-23.9-20.3
		c-41.5-23.9-94.5-9.7-118.4,31.7s-9.7,94.5,31.7,118.4c37.4,21.6,84.3,12.1,110.7-20.4l90.5,37c-31.6,54.2-90.4,90.7-157.7,90.7
		C81.7,365,0,283.3,0,182.5z"/>
	<path class="st2" d="M295.1,255.8c-24,36.8-65.5,61.1-112.6,61.1c-74.2,0-134.4-60.2-134.4-134.4S108.3,48.1,182.5,48.1
		c47.2,0,88.7,24.3,112.6,61.1l-45.5,18.6c-6.5-7.9-14.5-14.9-23.9-20.3c-41.5-23.9-94.5-9.7-118.4,31.7
		c-23.9,41.5-9.7,94.5,31.7,118.4c37.4,21.6,84.3,12.1,110.7-20.4L295.1,255.8z"/>
</g>
</svg>
