<?xml version="1.0" encoding="utf-8"?>
<!-- Generator: Adobe Illustrator 25.4.1, SVG Export Plug-In . SVG Version: 6.00 Build 0)  -->
<svg version="1.1" id="Слой_1" xmlns="http://www.w3.org/2000/svg" xmlns:xlink="http://www.w3.org/1999/xlink" x="0px" y="0px"
	 viewBox="0 0 892 169.5" style="enable-background:new 0 0 892 169.5;" xml:space="preserve">
<style type="text/css">
	.st0{fill-rule:evenodd;clip-rule:evenodd;fill:#FFFFFF;}
	.st1{fill-rule:evenodd;clip-rule:evenodd;fill:#F9690E;}
	.st2{fill:#FFFFFF;}
	.st3{fill:#F9690E;}
</style>
<path class="st0" d="M137,50.7c-11.1-17.1-30.4-28.4-52.3-28.4c-34.5,0-62.4,27.9-62.4,62.4s27.9,62.4,62.4,62.4
	c21.9,0,41.2-11.3,52.3-28.4l-21.1-8.6c-3,3.7-6.7,6.9-11.1,9.4c-19.3,11.1-43.9,4.5-55-14.7s-4.5-43.9,14.7-55
	c17.4-10,39.2-5.6,51.4,9.5L137,50.7z"/>
<path class="st1" d="M84.7,169.5c-46.8,0-84.7-38-84.7-84.8S37.9,0,84.7,0C116,0,143.3,16.9,158,42.1l-21,8.6
	c-11.1-17.1-30.4-28.4-52.3-28.4c-34.5,0-62.4,27.9-62.4,62.4s27.9,62.4,62.4,62.4c21.9,0,41.2-11.3,52.3-28.3l21,8.6
	C143.3,152.5,116,169.5,84.7,169.5z"/>
<path class="st2" d="M231.1,103.7c2.7,0,4.9-0.2,6.7-0.7s3.4-1.1,4.8-1.9l2.4,8.6c-1.4,0.8-3.3,1.5-5.9,2.2c-2.5,0.6-5.6,1-9.2,1
	c-4.1,0-7.9-0.6-11.3-1.9c-3.5-1.3-6.5-3.2-9-5.6c-2.5-2.5-4.4-5.4-5.8-8.9c-1.4-3.5-2.1-7.5-2.1-11.8s0.7-8.1,2-11.6
	c1.4-3.5,3.3-6.4,5.7-8.8c2.5-2.5,5.5-4.4,9-5.7s7.4-2,11.8-2c3.7,0,6.7,0.4,9.1,1c2.4,0.7,4.4,1.4,5.9,2.2l-2.7,8.7
	c-1.5-0.8-3.2-1.5-5-2c-1.8-0.6-3.8-0.9-6-0.9c-2.4,0-4.6,0.3-6.7,1s-3.9,1.8-5.4,3.4c-1.6,1.5-2.8,3.5-3.7,5.9s-1.3,5.2-1.3,8.6
	c0,3.3,0.4,6.1,1.3,8.5c0.9,2.4,2,4.3,3.5,5.9c1.6,1.5,3.3,2.7,5.4,3.5C226.5,103.3,228.7,103.7,231.1,103.7z"/>
<polygon class="st2" points="268.4,57.5 280,78.7 291.7,57.5 304.6,57.5 285.6,89.5 285.6,111.9 273.7,111.9 273.7,89.5 255.1,57.5 
	"/>
<path class="st2" d="M329.7,102.9h5.6c2.9,0,5.4-0.5,7.3-1.6c1.9-1.2,2.8-3.1,2.8-5.9c0-2.6-1-4.4-3-5.5c-2-1.2-4.5-1.7-7.4-1.7
	h-5.3V102.9L329.7,102.9z M329.7,79.3h5.6c2.6,0,4.6-0.5,6.1-1.6c1.6-1.2,2.3-2.8,2.3-5.1c0-2-0.7-3.5-2.2-4.5c-1.4-1-3.4-1.5-6-1.5
	h-5.9L329.7,79.3L329.7,79.3z M337.3,57.5c5.8,0,10.3,1.2,13.7,3.7s5,6,5,10.5c0,1.7-0.3,3.2-1,4.5c-0.6,1.3-1.3,2.5-2.3,3.5
	c-0.9,0.9-2,1.7-3.2,2.3c-1.2,0.6-2.3,1.1-3.5,1.4c1.6,0.3,3.1,0.8,4.5,1.5c1.4,0.6,2.7,1.5,3.7,2.6c1.1,1.1,1.9,2.4,2.5,4
	c0.6,1.5,1,3.2,1,5.2c0,2.2-0.5,4.3-1.5,6.2c-1,1.8-2.4,3.5-4.2,4.8c-1.8,1.4-4,2.5-6.6,3.2c-2.5,0.8-5.4,1.1-8.5,1.1h-19V57.5
	H337.3z"/>
<polygon class="st2" points="374.1,57.5 409.5,57.5 409.5,66.7 385.9,66.7 385.9,79.1 407.3,79.1 407.3,88.2 385.9,88.2 
	385.9,102.8 409.8,102.8 409.8,111.9 374.1,111.9 "/>
<path class="st2" d="M437.4,82.8h4.7c3.1,0,5.7-0.6,7.6-1.9c2-1.3,3-3.4,3-6.3c0-2.6-0.8-4.6-2.4-6s-3.9-2.2-6.9-2.2h-6L437.4,82.8
	L437.4,82.8z M425.6,57.5h20.7c3,0,5.7,0.5,8,1.4c2.4,0.9,4.3,2.1,5.9,3.6s2.7,3.3,3.5,5.3s1.2,4.2,1.2,6.6c0,2.2-0.3,4.2-1,5.9
	c-0.6,1.7-1.5,3.1-2.5,4.4c-1,1.2-2.1,2.2-3.4,3.1c-1.2,0.8-2.4,1.5-3.5,2l13.3,22.1h-13.6l-10.5-20h-6.3v20h-11.8L425.6,57.5
	L425.6,57.5z"/>
<path class="st2" d="M499.5,56.5c3.5,0,6.6,0.4,9.3,1c2.7,0.7,5.1,1.6,7.3,2.7l-2.7,8.8c-2.4-1.2-4.6-2-6.8-2.6
	c-2.2-0.6-4.3-1-6.4-1c-2.8,0-4.9,0.5-6.5,1.6c-1.5,1.1-2.2,2.6-2.2,4.4c0,1.9,0.7,3.3,2,4.3s3.5,1.9,6.4,2.8l5.2,1.6
	c4.3,1.4,7.7,3.5,10.1,6.1c2.5,2.7,3.7,5.9,3.7,9.8c0,2.3-0.4,4.5-1.3,6.5s-2.2,3.8-3.9,5.3s-3.9,2.7-6.5,3.5
	c-2.6,0.9-5.6,1.3-9.1,1.3c-6.5,0-12.5-1.3-17.9-4l2.7-8.8c2.5,1.2,4.9,2.2,7.3,2.8c2.4,0.6,4.8,1,7.4,1c3,0,5.4-0.5,6.9-1.6
	c1.6-1.2,2.3-2.7,2.3-4.8c0-0.7-0.1-1.3-0.4-2c-0.2-0.7-0.7-1.3-1.4-1.9c-0.7-0.6-1.6-1.2-2.8-1.8c-1.2-0.6-2.7-1.2-4.6-1.8
	l-4.6-1.5c-2-0.7-3.9-1.5-5.5-2.4c-1.7-0.9-3.1-2-4.3-3.2c-1.2-1.2-2.1-2.6-2.8-4.2c-0.6-1.7-1-3.6-1-5.8c0-2.4,0.4-4.5,1.3-6.5
	s2.1-3.7,3.8-5.2c1.7-1.4,3.8-2.6,6.3-3.4C493.4,57,496.3,56.5,499.5,56.5z"/>
<path class="st2" d="M547,83.1h4.8c1.5,0,2.9-0.1,4.2-0.3c1.4-0.3,2.6-0.8,3.5-1.4c1-0.7,1.8-1.5,2.4-2.6c0.6-1.1,0.9-2.5,0.9-4.1
	c0-2.8-0.9-4.9-2.8-6.2c-1.9-1.3-4.3-2-7.3-2H547V83.1L547,83.1z M535.2,57.5h19.1c3.2,0,6,0.4,8.6,1.1c2.6,0.8,4.8,1.8,6.6,3.3
	c1.8,1.4,3.3,3.2,4.2,5.3c1,2,1.5,4.3,1.5,7c0,3.1-0.6,5.8-1.7,8c-1.2,2.2-2.7,4.1-4.8,5.6c-2,1.4-4.3,2.5-6.9,3.3
	c-2.7,0.7-5.5,1-8.5,1H547v19.8h-11.8V57.5L535.2,57.5z"/>
<path class="st2" d="M600.5,84.8c0,3.2,0.4,6,1.1,8.5c0.8,2.4,1.9,4.3,3.2,6c1.3,1.5,2.8,2.7,4.6,3.5s3.7,1.1,5.7,1.1
	s3.8-0.4,5.5-1.1c1.8-0.8,3.3-2,4.6-3.5c1.3-1.6,2.3-3.6,3-6c0.8-2.4,1.1-5.2,1.1-8.5s-0.4-6.2-1.2-8.6s-1.8-4.4-3.1-6
	s-2.9-2.8-4.7-3.5c-1.7-0.8-3.6-1.1-5.6-1.1s-3.9,0.4-5.6,1.2s-3.2,2-4.5,3.6c-1.3,1.5-2.3,3.5-3,6
	C600.8,78.8,600.5,81.6,600.5,84.8z M615.1,56.5c3.9,0,7.4,0.6,10.7,1.9c3.3,1.3,6.1,3.1,8.5,5.5s4.2,5.3,5.5,8.8
	c1.4,3.5,2.1,7.5,2.1,12c0,4.4-0.7,8.3-2.1,11.7s-3.3,6.4-5.7,8.8s-5.3,4.3-8.6,5.6c-3.3,1.3-6.9,1.9-10.7,1.9s-7.4-0.6-10.7-1.8
	c-3.3-1.3-6.1-3.1-8.5-5.4c-2.4-2.4-4.2-5.3-5.6-8.8c-1.3-3.5-2-7.5-2-12c0-4.4,0.7-8.3,2.1-11.7c1.4-3.5,3.3-6.5,5.7-8.9
	c2.4-2.5,5.3-4.3,8.6-5.6C607.6,57.2,611.2,56.5,615.1,56.5z"/>
<path class="st2" d="M670,82.8h4.7c3.1,0,5.7-0.6,7.6-1.9c2-1.3,3-3.4,3-6.3c0-2.6-0.8-4.6-2.4-6c-1.6-1.4-3.9-2.2-6.9-2.2h-6
	L670,82.8L670,82.8z M658.2,57.5h20.7c3.1,0,5.7,0.5,8,1.4c2.4,0.9,4.3,2.1,5.9,3.6c1.6,1.5,2.7,3.3,3.5,5.3s1.2,4.2,1.2,6.6
	c0,2.2-0.3,4.2-1,5.9c-0.6,1.7-1.5,3.1-2.5,4.4c-1,1.2-2.1,2.2-3.4,3.1c-1.2,0.8-2.4,1.5-3.5,2l13.3,22.1h-13.6l-10.5-20H670v20
	h-11.8L658.2,57.5L658.2,57.5z"/>
<polygon class="st2" points="751.2,57.5 751.2,66.8 735.8,66.8 735.8,111.9 724,111.9 724,66.8 709,66.8 709,57.5 "/>
<path class="st2" d="M803.4,82.8h4.7c3.1,0,5.7-0.6,7.6-1.9c2-1.3,3-3.4,3-6.3c0-2.6-0.8-4.6-2.4-6c-1.6-1.4-3.9-2.2-6.9-2.2h-6
	L803.4,82.8L803.4,82.8z M791.7,57.5h20.7c3.1,0,5.7,0.5,8,1.4c2.4,0.9,4.3,2.1,5.9,3.6c1.6,1.5,2.7,3.3,3.5,5.3s1.2,4.2,1.2,6.6
	c0,2.2-0.3,4.2-1,5.9c-0.6,1.7-1.5,3.1-2.5,4.4c-1,1.2-2.1,2.2-3.4,3.1c-1.2,0.8-2.4,1.5-3.5,2l13.3,22.1h-13.6l-10.5-20h-6.3v20
	h-11.8L791.7,57.5L791.7,57.5z"/>
<path class="st2" d="M846.5,57.5h11.8v32.6c0,4.5,0.9,7.9,2.7,10.3c1.8,2.3,4.7,3.5,8.5,3.5c3.7,0,6.4-1.2,8.1-3.5s2.5-5.4,2.5-9.2
	V57.5H892v32.7c0,7.6-1.9,13.3-5.7,17c-3.7,3.7-9.3,5.6-16.8,5.6c-7.1,0-12.8-1.9-16.8-5.6s-6.1-9.6-6.1-17.4V57.5H846.5z"/>
<path class="st3" d="M761.1,105.4c0-3.4,2.8-6.2,6.2-6.2s6.2,2.8,6.2,6.2s-2.8,6.2-6.2,6.2C763.8,111.6,761.1,108.8,761.1,105.4z"/>
</svg>
